#!OML:ASF F:\VICON\USERDATA\INSTALL\rory3\rory3.ASF
:FULLY-SPECIFIED
:DEGREES
2610
root 1.6117 15.1532 -11.5473 -546.583 -54.0483 543.431
lowerback 19.0003 1.7461 -4.86476
upperback -0.0425887 1.42702 2.62806
thorax -10.958 0.988503 5.30279
lowerneck -12.487 -6.57576 -3.08775
upperneck 17.9791 -9.7884 5.13807
head 8.03106 -4.49999 1.12677
rclavicle -1.05331e-013 -3.99557e-014
rhumerus 52.2878 59.1775 -39.6025
rradius 31.5498
rwrist 1.32103
rhand 5.27037 19.3161
rfingers 7.12502
rthumb 30.6278 -8.15564
lclavicle -1.05331e-013 -3.99557e-014
lhumerus -12.4307 -60.6023 86.7449
lradius 31.9923
lwrist 51.3968
lhand 1.42206 28.5771
lfingers 7.12502
lthumb 26.9517 56.675
rfemur -28.8643 7.94635 5.01174
rtibia 36.5757
rfoot -4.49567 -5.94355
rtoes -38.4246
lfemur -25.4414 23.3592 -25.0652
ltibia 58.0763
lfoot -29.3009 7.31036
ltoes 12.0187
2611
root 1.60615 15.1488 -11.5462 -546.611 -53.865 543.146
lowerback 19.1399 1.77832 -5.2036
upperback 0.0722482 1.38536 2.65717
thorax -10.9128 0.981746 5.54354
lowerneck -12.5551 -6.55639 -3.17926
upperneck 18.0261 -9.73713 5.10704
head 8.05944 -4.48162 1.1342
rclavicle -4.21548e-014 2.66371e-014
rhumerus 52.3194 59.0456 -39.7502
rradius 31.6708
rwrist 1.63276
rhand 5.12291 19.7409
rfingers 7.12502
rthumb 30.4872 -7.75704
lclavicle -4.21548e-014 2.66371e-014
lhumerus -12.3544 -60.2531 86.791
lradius 31.9946
lwrist 51.3581
lhand 1.51497 28.4097
lfingers 7.12502
lthumb 27.0406 56.4938
rfemur -28.6534 8.27532 4.833
rtibia 36.5862
rfoot -4.54993 -6.13419
rtoes -37.413
lfemur -25.0831 23.492 -25.0977
ltibia 58.101
lfoot -29.5316 6.95048
ltoes 13.1196
2612
root 1.60035 15.1417 -11.5297 -546.613 -53.4611 543.214
lowerback 19.1142 1.7862 -5.15068
upperback 0.0638689 1.41124 2.68182
thorax -10.9106 0.991915 5.53316
lowerneck -12.7607 -6.49192 -3.15653
upperneck 18.2305 -9.66125 5.07741
head 8.15834 -4.43993 1.11988
rclavicle 7.74018e-015 -2.88238e-014
rhumerus 51.9873 58.8124 -40.4552
rradius 31.667
rwrist 2.26832
rhand 5.25413 20.5916
rfingers 7.12502
rthumb 30.6123 -6.88308
lclavicle 7.74018e-015 -2.88238e-014
lhumerus -12.1922 -60.0414 86.7256
lradius 32.0053
lwrist 51.471
lhand 1.66403 28.5954
lfingers 7.12502
lthumb 27.1832 56.6572
rfemur -28.9115 8.5002 4.82043
rtibia 36.5903
rfoot -4.6319 -6.16747
rtoes -36.3888
lfemur -25.1952 23.7713 -25.1136
ltibia 58.1598
lfoot -29.6043 7.25075
ltoes 13.1497
2613
root 1.59231 15.136 -11.5143 -546.497 -53.1933 543.186
lowerback 19.1032 1.7886 -5.0364
upperback 0.0124037 1.44049 2.66438
thorax -10.9625 1.00261 5.43926
lowerneck -13.0263 -6.5055 -3.35183
upperneck 18.5427 -9.68654 5.18211
head 8.32736 -4.44536 1.16869
rclavicle -5.26407e-014 3.81667e-014
rhumerus 51.9002 58.6721 -40.6911
rradius 31.8192
rwrist 1.92851
rhand 5.81698 20.6993
rfingers 7.12502
rthumb 31.1489 -6.67364
lclavicle -5.26407e-014 3.81667e-014
lhumerus -12.0994 -60.2515 86.7707
lradius 32.0848
lwrist 51.8217
lhand 1.66777 28.7807
lfingers 7.12502
lthumb 27.1868 56.842
rfemur -29.1769 8.29621 4.77768
rtibia 36.646
rfoot -4.56028 -6.10789
rtoes -37.1688
lfemur -25.3413 24.0417 -25.2323
ltibia 58.1767
lfoot -29.5875 7.65292
ltoes 11.7857
2614
root 1.58178 15.1343 -11.5049 -546.39 -53.1877 543.046
lowerback 19.1355 1.75432 -4.9937
upperback -0.0160062 1.39867 2.61194
thorax -11.0042 0.981286 5.36793
lowerneck -13.2551 -6.56234 -3.60766
upperneck 18.8222 -9.77493 5.36711
head 8.49019 -4.47844 1.24778
rclavicle 7.38112e-014 3.97569e-016
rhumerus 52.4685 58.9006 -39.9104
rradius 32.3746
rwrist 0.187798
rhand 5.52292 19.4429
rfingers 7.12502
rthumb 30.8686 -7.98348
lclavicle 7.38112e-014 3.97569e-016
lhumerus -12.1804 -60.4577 86.9294
lradius 32.1514
lwrist 51.9556
lhand 1.7405 28.9331
lfingers 7.12502
lthumb 27.2564 56.9835
rfemur -29.1572 7.78085 4.71707
rtibia 36.6837
rfoot -4.37243 -6.05836
rtoes -38.9476
lfemur -25.3087 24.1973 -25.3249
ltibia 58.2066
lfoot -29.701 7.25999
ltoes 12.2003
2615
root 1.57633 15.1321 -11.4985 -546.395 -53.1293 542.947
lowerback 19.1805 1.73667 -5.12026
upperback -0.021785 1.34072 2.56949
thorax -11.0307 0.96084 5.41041
lowerneck -13.2012 -6.54266 -3.43229
upperneck 18.8308 -9.78665 5.33816
head 8.47346 -4.47797 1.2104
rclavicle 2.38293e-014 -1.51076e-014
rhumerus 50.7292 58.0861 -42.2101
rradius 31.9249
rwrist 2.72012
rhand 6.08535 22.2179
rfingers 7.12502
rthumb 31.4046 -5.10568
lclavicle 2.38293e-014 -1.51076e-014
lhumerus -12.2091 -60.4982 86.9633
lradius 32.1582
lwrist 52.0546
lhand 2.02268 29.2546
lfingers 7.12502
lthumb 27.5263 57.2624
rfemur -29.1219 7.48039 4.69197
rtibia 36.765
rfoot -4.3166 -6.06593
rtoes -39.4332
lfemur -25.183 24.3166 -25.3025
ltibia 58.2618
lfoot -29.9657 6.51532
ltoes 14.518
